<?xml version="1.0" encoding="utf-8"?>
<!-- Generator: Adobe Illustrator 26.5.0, SVG Export Plug-In . SVG Version: 6.00 Build 0)  -->
<svg version="1.1" id="Layer_2_00000151513876719457548200000015374999544985009597_"
	 xmlns="http://www.w3.org/2000/svg" xmlns:xlink="http://www.w3.org/1999/xlink" x="0px" y="0px" viewBox="0 0 475.7 526.1"
	 style="enable-background:new 0 0 475.7 526.1;" xml:space="preserve">
<style type="text/css">
	.st0{fill:#7BCCC4;}
	.st1{enable-background:new    ;}
</style>
<g id="Layer_1-2">
	<g>
		<g>
			<path class="st0" d="M184.6,402.4c-7.6-3.8-18.2-9.3-30.6-16.4c-24.2-14-59.4-34.6-94.7-70.4c-33-33.4-42.8-56.4-45.5-62.9
				c-3.1-7.6-7.4-18.3-9.1-32.9c-1.1-9.5-5.8-49.4,19.6-78.2c20.5-23.3,50.5-28.7,77.5-33.5c5-0.9,9.1-1.4,11.9-1.8
				c-5.4,12.2-10.8,24.5-16.2,36.8c-3.2,0-7.9,0.2-13.4,1.3c-3.7,0.7-31.5,6.8-43.8,29.4c-6,11.1-6.7,23.9-4.4,37.1
				c7.5,42.7,39.7,74.9,57.7,90.7c63.6,55.7,140.6,85.4,187.4,100c-15.2,8.7-38,20-67.1,28.2c-6.8,1.9-149.2,40.5-196.4-24.2
				c-10.7-14.7-19-38.1-17.4-60.7c1.6-22.8,12.5-40.4,12.5-40.4c2-3.3,4-5.9,5.4-7.7c8,9.3,16.1,18.5,24.2,27.8
				c-2.3,3.4-5.8,9.2-7.2,17.2c-2.4,13.1,2.1,23.4,4.2,28.3c4.8,10.8,14.8,21.1,25.1,27.1c5.5,3.2,18.4,10.3,53.2,11.3
				C133.8,409,157,408.2,184.6,402.4z"/>
		</g>
		<g>
			<path class="st0" d="M381.6,253.7c0.6,8.4,1.4,20.4,1.6,34.7c0.4,28,0.7,68.7-11.9,117.4c-11.8,45.4-26.5,65.7-30.7,71.3
				c-5,6.6-12,15.7-23.6,24.7c-7.6,5.8-39.4,30.3-77.2,23.2c-30.6-5.7-50.5-28.6-68.5-49.4c-3.3-3.8-5.9-7.1-7.6-9.3
				c13.3-1.6,26.6-3.3,39.9-4.9c1.6,2.8,4.2,6.7,8,10.8c2.5,2.8,22,23.6,47.7,22.5c12.6-0.6,24-6.5,34.1-15.2
				c32.8-28.3,44-72.5,48.3-96c15.2-83.2,1.2-164.5-10.1-212.1c15.3,8.6,36.7,22.3,58.7,43.1c5.1,4.9,111.3,107.3,79.9,181
				c-7.1,16.8-23,35.9-43.2,46.1c-20.4,10.3-41,10-41,10c-3.9-0.1-7.1-0.4-9.4-0.7c3.8-11.7,7.7-23.3,11.5-35
				c4.1,0.3,10.9,0.2,18.5-2.6c12.5-4.6,19.1-13.8,22.1-18.1c6.8-9.6,10.5-23.5,10.4-35.4c0-6.4-0.6-21-17.6-51.5
				C413.2,293.9,400.7,274.4,381.6,253.7L381.6,253.7z"/>
		</g>
		<g>
			<path class="st0" d="M161.8,141.6c7.3-4.3,17.7-10.1,30.5-16.6c25-12.6,61.5-30.7,110.7-40.7c46-9.3,70.7-4.9,77.5-3.6
				c8.1,1.6,19.4,3.9,32.5,10.4c8.5,4.3,44.5,22.2,54.7,59.2c8.3,30-3.6,57.9-14.4,83.2c-2,4.7-3.8,8.4-5.1,10.9
				c-7.3-11.2-14.6-22.4-21.9-33.7c1.8-2.7,4.1-6.7,6.2-11.9c1.4-3.5,11.6-30.1-0.7-52.7c-6-11.1-16.3-18.7-28.6-24
				c-39.8-17.1-84.4-7.8-107.4-1.4c-81.5,22.7-148.4,70.9-186.3,102c1-17.5,4-42.7,13.1-71.6c2.1-6.7,47.7-147,127.8-151.1
				c18.2-0.9,42.3,5,60.4,18.6c18.2,13.8,26.9,32.5,26.9,32.5c1.6,3.5,2.8,6.5,3.5,8.7c-12.2,1.7-24.3,3.3-36.5,5
				c-1.5-3.8-4.5-9.9-10.4-15.5c-9.6-9.2-20.8-11.1-26-11.9c-11.6-1.9-25.7,0.8-36.4,6.1c-5.8,2.8-18.6,9.8-38.6,38.3
				C184.2,95.5,172.1,115.3,161.8,141.6L161.8,141.6z"/>
		</g>
		<g class="st1">
			<path class="st0" d="M199.9,270.7l-6.5-0.3v62.9h-20.3V200.1h33.5c7,0,12.2,1.4,15.6,4.2c3.4,2.8,5.7,6.7,6.8,11.7
				c1.1,5,1.6,11.6,1.6,19.7s-0.9,14.3-2.6,18.5c-1.7,4.2-4.9,7.1-9.5,8.6c4.6,0.8,7.8,3.9,9.6,9.3c1.8,5.4,2.7,16.6,2.7,33.7
				c0,17.1,0.3,26.3,0.8,27.5h-20.3c-0.5-1-0.8-16.9-0.8-47.8c0-5.9-0.7-9.8-2.1-11.8C207,271.9,204.2,270.8,199.9,270.7z
				 M193.5,254.7h8.1c2.6,0,4.5-0.6,5.7-1.7c1.2-1.2,2.1-3.2,2.6-6c0.5-2.8,0.7-7.1,0.7-12.9v-0.8c0-7.2-0.6-11.9-1.8-14.2
				c-1.2-2.2-4-3.3-8.4-3.3h-6.9V254.7z"/>
			<path class="st0" d="M249.6,333.4V200.1h20.3V254H288v-53.9h20.3v133.3H288v-61.9h-18.2v61.9H249.6z"/>
		</g>
	</g>
</g>
</svg>
